<svg xmlns="http://www.w3.org/2000/svg" xmlns:xlink="http://www.w3.org/1999/xlink" width="186" height="50" viewBox="0 0 186 50">
  <defs>
    <clipPath id="clip-path">
      <rect id="Rectangle_1" data-name="Rectangle 1" width="186" height="50"/>
    </clipPath>
  </defs>
  <g id="Main_Logo" data-name="Main Logo" clip-path="url(#clip-path)">
    <g id="Group_2" data-name="Group 2">
      <g id="Group_1" data-name="Group 1" transform="translate(-616.096 -1582.207)">
        <path id="Path_1" data-name="Path 1" d="M834.83,1838.41a19.826,19.826,0,0,0-8.06,10.753c-2.48,8.271.62,17.438,8.887,21.022,11.229,4.825,27.143-3.929,24.939-17.714-.276-1.792-1.033-1.516-1.033-.827,0,11.3-15.225,19.782-24.388,11.924,12.676-7.168,18.808-11.3,20.185-12.2C864.867,1844.889,851.36,1827.657,834.83,1838.41Zm-2.342,21.16c-5.442-15.577,17.843-24.676,18.876-14.406a5.14,5.14,0,0,1-2.2,4.618l-16.672,9.788Z" transform="translate(-198.687 -239.317)" fill="#764af1" fill-rule="evenodd"/>
        <path id="Path_2" data-name="Path 2" d="M629.53,1584.28l20.668-2.068-5.925,6.962,1.585,3.1.9,1.723c-6.131.069-15.294,4.411-18.6,10.753-.276-.552-1.033-1.861-1.378-2.481l-1.585-3.033-2.962.276h0c0,1.241.62,2.619.413,4.342a1.227,1.227,0,0,1,.344,1.861l1.378,3.722-3.445.552.344-4a1.3,1.3,0,0,1,.138-2.275,18.245,18.245,0,0,0-.276-4.067h-.069l-4.96.482Z" fill="#764af1" fill-rule="evenodd"/>
      </g>
      <path id="Union_1" data-name="Union 1" d="M-421.794-508.417c-.1,0-.2,0-.3,0a9.419,9.419,0,0,1-4.336-1.062l-.012-.005a7.065,7.065,0,0,1-2.905-3.036l0-.005a9.794,9.794,0,0,1-.973-4.461v-11.884h4.12v12.158a5.1,5.1,0,0,0,.52,2.344,3.535,3.535,0,0,0,1.452,1.508,4.927,4.927,0,0,0,2.426.553h.032a4.96,4.96,0,0,0,2.414-.542,3.485,3.485,0,0,0,1.435-1.5,5.154,5.154,0,0,0,.519-2.365v-12.159h4.119v11.883a9.9,9.9,0,0,1-.958,4.459l0,.006a6.973,6.973,0,0,1-2.9,3.037l-.011.005a9.42,9.42,0,0,1-4.342,1.063Q-421.646-508.413-421.794-508.417Zm-21.481-.369h-7.173V-529h7.177a12.267,12.267,0,0,1,4.669.813,9.569,9.569,0,0,1,3.363,2.223,9.123,9.123,0,0,1,2.011,3.164,10.15,10.15,0,0,1,.651,3.612v.571a9.991,9.991,0,0,1-.657,3.519,9.227,9.227,0,0,1-2.007,3.185,9.937,9.937,0,0,1-3.352,2.272,11.783,11.783,0,0,1-4.415.856C-443.1-508.783-443.187-508.784-443.275-508.786Zm-3.053-3.882H-443a6.953,6.953,0,0,0,2.645-.473,5.635,5.635,0,0,0,1.948-1.3,5.5,5.5,0,0,0,1.226-1.966,7.115,7.115,0,0,0,.432-2.492v-.011a7.345,7.345,0,0,0-.427-2.58,5.332,5.332,0,0,0-1.228-1.921,5.5,5.5,0,0,0-1.954-1.25,7.294,7.294,0,0,0-2.65-.449h-3.322Zm100.334,3.782-8.354-15.448v15.448h-3.908v-19.98h5.9L-344-513.417v-15.449h3.956v19.98Zm-18.485,0-1.9-5.356h-7.892l-1.845,5.356H-380.3l7.007-19.98h5.88l7.226,19.98ZM-373-517.942h5.3l-2.574-7.244h-.23Zm-19.681,9.056v-19.98h4.12v16.2h7.93v3.782Zm-16.874,0V-529h6.681c.1,0,.193,0,.288,0a9.757,9.757,0,0,1,3.91.813l0,0a6.068,6.068,0,0,1,2.691,2.352l.007.012a6.752,6.752,0,0,1,.913,3.573v.4a6.776,6.776,0,0,1-.912,3.556l-.006.011a6.04,6.04,0,0,1-2.692,2.366l-.005,0a9.743,9.743,0,0,1-3.91.813c-.1,0-.193,0-.288,0h-2.56v6.214Zm4.12-9.944h2.951a3.542,3.542,0,0,0,1.8-.418,2.761,2.761,0,0,0,1.061-1.119,3.574,3.574,0,0,0,.386-1.674v-.018a3.64,3.64,0,0,0-.388-1.7,2.671,2.671,0,0,0-1.054-1.1,3.64,3.64,0,0,0-1.81-.408h-2.95ZM-466-508.886v-19.98h4.094v0h8.138v3.7h-8.138v4.276h7.644v3.7l-7.644.005v4.595h8.372v3.7Z" transform="translate(523.048 543.386)"/>
    </g>
  </g>
</svg>
